<svg xmlns="http://www.w3.org/2000/svg" xmlns:xlink="http://www.w3.org/1999/xlink" width="64" zoomAndPan="magnify" viewBox="0 0 48 48" height="64" preserveAspectRatio="xMidYMid meet" version="1.0"><defs><g/><clipPath id="a206ea5506"><path d="M 0.488281 0 L 47.363281 0 L 47.363281 47.019531 L 0.488281 47.019531 Z M 0.488281 0 " clip-rule="nonzero"/></clipPath><clipPath id="395826fa3b"><path d="M 6.957031 0 L 40.75 0 C 42.503906 0 44.1875 0.695312 45.425781 1.9375 C 46.667969 3.175781 47.363281 4.859375 47.363281 6.613281 L 47.363281 40.40625 C 47.363281 44.058594 44.402344 47.019531 40.75 47.019531 L 6.957031 47.019531 C 5.203125 47.019531 3.519531 46.324219 2.28125 45.082031 C 1.039062 43.84375 0.34375 42.160156 0.34375 40.40625 L 0.34375 6.613281 C 0.34375 4.859375 1.039062 3.175781 2.28125 1.9375 C 3.519531 0.695312 5.203125 0 6.957031 0 Z M 6.957031 0 " clip-rule="nonzero"/></clipPath></defs><g clip-path="url(#a206ea5506)"><g clip-path="url(#395826fa3b)"><path fill="#dd403a" d="M 0.34375 0 L 47.363281 0 L 47.363281 47.019531 L 0.34375 47.019531 Z M 0.34375 0 " fill-opacity="1" fill-rule="nonzero"/></g></g><g fill="#000000" fill-opacity="1"><g transform="translate(7.046938, 38.733069)"><g><path d="M 1.296875 -32.828125 L 1.8125 -32.828125 C 1.875 -32.421875 1.96875 -32.085938 2.09375 -31.828125 C 2.21875 -31.566406 2.523438 -31.4375 3.015625 -31.4375 L 30.53125 -31.4375 C 30.96875 -31.4375 31.265625 -31.53125 31.421875 -31.71875 C 31.578125 -31.90625 31.695312 -32.273438 31.78125 -32.828125 L 32.296875 -32.828125 L 32.296875 -26.265625 L 31.78125 -26.265625 C 31.726562 -26.753906 31.613281 -27.101562 31.4375 -27.3125 C 31.269531 -27.53125 30.984375 -27.640625 30.578125 -27.640625 L 19 -27.640625 L 19 -1.46875 C 19 -1.0625 19.09375 -0.800781 19.28125 -0.6875 C 19.46875 -0.570312 19.835938 -0.515625 20.390625 -0.515625 L 20.390625 0 L 13.21875 0 L 13.21875 -0.515625 C 13.820312 -0.515625 14.203125 -0.585938 14.359375 -0.734375 C 14.515625 -0.878906 14.59375 -1.125 14.59375 -1.46875 L 14.59375 -27.640625 L 3.0625 -27.640625 C 2.570312 -27.640625 2.257812 -27.53125 2.125 -27.3125 C 2 -27.101562 1.894531 -26.753906 1.8125 -26.265625 L 1.296875 -26.265625 Z M 1.296875 -32.828125 "/></g></g></g></svg>