<svg xmlns="http://www.w3.org/2000/svg" xmlns:xlink="http://www.w3.org/1999/xlink" width="50" zoomAndPan="magnify" viewBox="0 0 37.5 37.499999" height="50" preserveAspectRatio="xMidYMid meet" version="1.0"><defs><clipPath id="921128b62b"><path d="M 0 0 L 37 0 L 37 37 L 0 37 Z M 0 0 " clip-rule="nonzero"/></clipPath><clipPath id="0d0b48ade5"><path d="M 0.382812 34.019531 L 33.875 0.523438 L 36.492188 3.140625 L 3 36.636719 Z M 0.382812 34.019531 " clip-rule="nonzero"/></clipPath><clipPath id="d28747231c"><path d="M 0.382812 34.019531 L 33.875 0.523438 L 36.492188 3.140625 L 3 36.636719 Z M 0.382812 34.019531 " clip-rule="nonzero"/></clipPath><clipPath id="a3629003a3"><path d="M 0 0 L 37 0 L 37 37 L 0 37 Z M 0 0 " clip-rule="nonzero"/></clipPath><clipPath id="ff22fb9afb"><path d="M 2.980469 0.378906 L 36.476562 33.871094 L 33.859375 36.488281 L 0.363281 2.992188 Z M 2.980469 0.378906 " clip-rule="nonzero"/></clipPath><clipPath id="6b5fb68b67"><path d="M 2.980469 0.378906 L 36.476562 33.871094 L 33.859375 36.488281 L 0.363281 2.992188 Z M 2.980469 0.378906 " clip-rule="nonzero"/></clipPath></defs><g clip-path="url(#921128b62b)"><g clip-path="url(#0d0b48ade5)"><g clip-path="url(#d28747231c)"><path fill="#dd403a" d="M 0.386719 34.023438 L 34.03125 0.382812 L 36.617188 2.972656 L 2.976562 36.613281 Z M 0.386719 34.023438 " fill-opacity="1" fill-rule="nonzero"/></g></g></g><g clip-path="url(#a3629003a3)"><g clip-path="url(#ff22fb9afb)"><g clip-path="url(#6b5fb68b67)"><path fill="#dd403a" d="M 2.976562 0.382812 L 36.617188 34.023438 L 34.03125 36.613281 L 0.386719 2.972656 Z M 2.976562 0.382812 " fill-opacity="1" fill-rule="nonzero"/></g></g></g></svg>